<?xml version="1.0" encoding="UTF-8"?>
<svg id="Layer_2" data-name="Layer 2" xmlns="http://www.w3.org/2000/svg" version="1.1" viewBox="0 0 608.3 630.2">
  <defs>
    <style>
      .cls-1 {
        fill: none;
      }

      .cls-1, .cls-2, .cls-3 {
        stroke-width: 0px;
      }

      .cls-2 {
        display: none;
        fill: #303f3f;
      }

      .cls-3 {
        fill: #162626;
      }
    </style>
  </defs>
  <g id="Layer_1-2" data-name="Layer 1-2">
    <path class="cls-2" d="M232.2,269.5c.5-1.5,1-3,1.5-4.4,1.7-5.1,3.3-10.3,5-15.4s.8-2.5.5-4.2-.7-3.3-1.2-4.9c-1-3.1-2.3-6.1-3.9-9-1.1-2-2.2-4-3.4-6.2,3-1.3,5.8-2.2,8.8-2.6,7.8,5.6,14.1,12.5,17.7,21.5.3.6.5,1.3.7,1.9.8,2.1,1.4,4.4,1.6,6.6s0,2.3-.2,3.4-.3,1.2-.5,1.7-.3,1-.7,1.2c-.2.1-.4.1-.7.1-1.3,0-2.6.1-3.9.2-.5,0-1.1,0-1.6.2s-1.2.4-1.3,1,0,1.5.2,2.2c0,.7.2,1.4.3,2.1.5,3.6,1.3,7.1,2.5,10.6s2.5,6.5,4.2,9.5,3.6,5.8,5.8,8.4,4.8,5.1,7.5,7.3,5.9,4.3,9.1,6.1c20.7,11.6,41.8,22.4,62.8,33.5,6.6,3.5,6.8,3.9,2,9.9-.3.4-.3.9-.4,1.4h0c-2.5,1.9-3.3,3.9.8,5.6,10.4,4.3,21.5,7.2,32.7,8.4.6,0,1.4.2,1.8.6.5.5.5,1.3.4,2-.5,3.6-3.4,6.4-6,9-1.9,1.7-3.8,3.5-6.1,4.5-1.8.7-3.7.9-5.6,1-8.2.5-16.5-.4-24.4-2.7-4.9-1.4-9.7-3.2-14.7-4.2-4.1-.8-8-.1-12.2-.2l-36.1-.7c-4-1.6-8.3-2.5-12.6-2.5l-27.1-24.9c-1.3-1.9-2.4-4-3.2-6.1l-5.4-6.5c-1.8-1.2-3.5-2.6-5.3-3.8-.5-.3-.9-.6-1.2-1.1-.3-.5-.4-1.1-.6-1.7-.5-2.1-2.3-3.6-2.4-5.6-.1-2.4,2.5-6.7,3.4-9.1,1.7-4.7,3.5-9.4,5.2-14.2s.3-4,.5-6.4c0-1.1.7-2.5.7-3.6s-.8-2.2-.9-3.4c-.4-3.2.5-5.4,2.2-7.9s3.1-5.8,4.2-9Z"/>
    <path class="cls-2" d="M397.1,180.6c1.6-3.5,3.3-6.9,5.1-10.3s4.4-5.8,4.1-8.5c-.5-5.3,2.2-7.1,7-6.8,0,4.8.2,9.6,1,14.4,1.4,8,2.2,16.1,5.1,23.7,4.1,10.8,13,16.8,22.5,22.2,17.7,10.1,34.8,21.2,52.2,31.9,9.6,5.9,19.2,12,28.8,18,4.8,3,9.7,6.1,14.6,9,2.4,1.5,4.9,3,7.3,4.5,2,1.2,4.6,2.2,5.4,4.7,0,.2.1.4.2.5.3,1.1.2,2.3.2,3.4,0,1,0,1.9-.2,2.9-.3,1.8-1.2,3.4-1.8,5.1-1.4,4.3.4,5.6,4,7,2.4,1,3.5,3.6,5.7,5.1,1.6,1,3.5,1.3,5.4,1.7,5.6,1.2,10.8,3.7,15.2,7.4.8.7,2.7,1.9,3.1,3,.5,1.3-.9,2.3-1.9,3.1-2.1,1.6-4.7,2.3-7.2,3-9.3,2.3-19.3.7-27.8-3.7-4.3-2.2-8.2-5.2-11.5-8.8-1.6-1.8-3.1-3.8-4.4-5.9-.5-.9-.8-2-2-2.2-1-.1-2.9,1-3.8,1.3-4.3,1.7-8.6,4-11.2,7.9-1.6,2.4-2.4,5.2-3.4,7.8-2.5,6.2-6.6,11.6-10.7,17-2.4,3.2-8.1,7.9-7.5,12.3l-10.8,96.1c-1.1,1.8-2.2,3.6-3.2,5.4l-16.3,4.3c-3.1-.4-6.2-1.1-9.4-1.1-.2-9.8-.5-19.6-.8-29.5-.4-15.3-.8-30.7-1.2-46-.3-11.8,1.2-25.4-5.4-35.8-2.4-3.8-1.8-8-1.5-12.3.3-3.5.3-7,0-10.5-.1-1.8-.3-3.8-1.4-5.3-.9-1.4-2.4-2.3-3.8-3.2-9.1-5.4-19.3-9-29.7-10.7-3.7-.6-7.6-1-10.6-3.2-5.3-3.8-6.1-11.1-7-17.6-2-13.4-6.8-26.4-7.9-39.9-.3-3.8-.3-7.5,0-11.3.4-5.2,1.5-10.3,2.9-15.3.8-3.1,1.4-6.2,2.2-9.3s1.8-4.6,2.9-7c2.7-6,4.6-12.5,7.4-18.6Z"/>
    <path class="cls-3" d="M243.4,21.1c-3,0-6,0-9,.1-23.6.8-46.5,6-68.9,13.1-2.4.7-4.7,1.6-7,2.5s-2.3.9-3.5,1.4c-.9.4-1.9.7-2.8,1.1-1,.5-2,.9-2.9,1.4l-2.9,1.4c-.4.2-1.1.2-1.5,0-.6,0-1.2-.3-1.6-.7,5.9-4.9,12.2-8.9,18.8-12.5C220-3.2,280.3-8.6,343,12.8c.8.3,1.6.4,2.4.6.8.5,1.6,1.2,2.5,1.6,18,6.7,34.5,16.2,49.7,28,29.4,22.6,52.7,50.2,68.5,83.9,1,2,2.5,2.5,4.1,3.1,25.6,9.8,42.3,27.5,48.4,54.6.4,1.8.9,3.4,2.3,4.9,16.4,16.1,33.2,31.7,50.4,47,4.3,4.1,8.7,8.1,13,12.2,0,.3.2.5.6.5,1.1,1.1,2.2,2.1,3.4,3.2,1,1,1.9,1.9,2.9,2.9,3.8,4.9,8.9,8.3,13.1,12.8,3.7,3.9,4.7,7.8,3.6,12.6-.8,3.6-1.8,7.1-2.7,10.6-1.2,4.5-.8,8.9.6,13.2,2.1,6.8,0,10.8-6.7,13.2-1.4.5-3.3.1-3.3,2.8,0,10.8-6.4,17.4-15.5,21.9-1,.5-2,1.2-2.9,1.8-3.6.7-7.1,1.6-10.7,2-13.8,1.5-26.4-2-37.8-9.8-3.5-2.4-6.4-2.3-10-.4-10.2,5.5-16.5,14.1-19.4,24.9-2.7,10.1-5.4,20.3-5,31.1.4,14.2-.3,28.5-2.9,42.7-2,11.2-2.7,22.6-6.8,33.3-7.2,18.5-15.7,36.3-28.4,51.8-3.6,4.4-7.1,8.7-10.7,13.1-.3.3-.7.7-1,1-1.3,1.3-2.6,2.6-3.9,3.9-7.7,6.9-15.7,13.5-24.4,19.2-.7-.2-1.4,1.2-2.1,0,6.4-16,12.8-31.8,15.2-49,3.2-23.1,1.6-45.8-3.6-68.4-4.9-21.2-10-42.4-9.6-64.5.3-18.6,3.4-36.4,12.3-53,1.3-2.4,1-3.3-1.7-4.1-35-10.1-55.4-34.2-62.9-68.9-7.7-35.7-29.6-57.4-63-69-.9-.3-1.9-.6-2.8-1-.3-.1-.5-.4-1.1-.9,11.5-10.4,23.1-20.7,36.7-28.1,2.4-1.3,3.1-2.4,1.9-4.9-.8-1.6-1.4-3.5-1.4-5.3,0-10.3-7.3-14.8-14.6-19.4-49.7-31.6-100.9-30.5-152.9-6.8-1.4.7-2.9,1.3-4.3,2s-2.9,1.4-4.3,2.2-2.8,1.5-4.2,2.2-2.8,1.6-4.1,2.3-2.7,1.6-4.1,2.4-2.7,1.7-4,2.5-2.6,1.7-3.9,2.6-2.6,1.8-3.9,2.7-2.6,1.8-3.8,2.8-2.5,1.9-3.8,2.9-2.5,1.9-3.7,2.9-2.5,2-3.7,3-2.4,2-3.7,3.1-2.4,2.1-3.6,3.1-2.4,2.1-3.6,3.2c-.7.6-1.3,1.2-1.9,1.8l-1.7,1.6-2,1.9-1.3,1.2c-1.3,1.2-2.6,2.4-3.9,3.6l-4,3.7-3.7,3.4c7.7-13.9,16.2-27,26.9-38.6,17.9-19.3,37.4-36.5,60.9-48.8,41.2-21.4,84.7-29.5,130.6-21.1,13.2,2.4,26.2,6.1,38.4,12.2,2.4,1.2,3.3,2.1,1.7,4.7-1.4,2.3-2.1,4.9-2.6,7.8,3.8-5.4,8-10.3,12.5-15.1,2.5-2.6,3.9-3.3,6.8-.2,17,17.1,31,36.1,38.4,59.4.9,2.9,2.1,2.9,4.6,2.1,10.5-3.6,21.1-6.9,33-7.7-2.5-3.6-4.9-6.8-7-10.1-1.4-2.1-3.1-1.6-4.8-1-6.8,2.2-13.6,4.4-20.4,6.7-2,.7-3.6,2.2-5-1.2-1.5-3.5.6-4,2.8-4.9,6.5-2.9,13.3-5.2,20.8-7.5-3-3.6-5.8-7-8.6-10.4-1.1-1.3-2.3-.8-3.6-.4-5.5,1.4-10.9,3.2-15.9,5.9-3.3,1.8-4.5.6-6-2.2-1.9-3.6,1.2-3.4,2.9-4.2,5-2.1,10.2-4.1,15.9-6.4-2.7-2.8-5.2-5.4-7.8-8.1-1.1-1.2-2.3-.9-3.6-.4-4.3,1.7-8.8,3.1-13.1,4.9-2.6,1.2-3.9.4-5.1-2-1.6-3.2,1.5-2.7,2.7-3.4,3.6-2,7.5-3.6,11.7-5.6-2.5-2.2-5-4.2-7.4-6.5-1.4-1.3-2.6-1.1-4.1-.5-2.5,1-5.1,1.7-7.4,3.1-4.5,2.8-7.3,1.6-9.4-3,3.7-2.7,7.8-4.3,12.1-5.7-4.3-6.2-7.8-7.3-14.1-4.6-4.9,2.1-9.8,4.3-13.9,7.7-2.9,2.4-3.8-.2-5.1-1.5-2.1-2,.6-2.5,1.4-3.1,4.8-3.8,10.2-6.9,15.9-9.4-6.9-6.4-8.5-6.7-16.3-2.4-3.6,2-7.1,4.3-10.6,6.5-1.7,1.1-3.4,1.6-4.8-.2-1.8-2.3.9-2.7,1.8-3.6,2.1-1.9,4.5-3.5,6.8-5.1,2.2-1.5,4.5-2.8,6.8-4.2-8.1-6.3-8.1-6.3-16.8-1.5-3.3,1.9-6.5,4-9.8,6-1.2.7-2.6,1.5-3.7.5-1.4-1.4.5-2.3,1.2-3.2,3.1-4,7.5-6.4,12.2-10-6.6-2.3-12.3-5.9-18.7-.5-2.6,2.2-5.7,4-8.7,5.8-.9.6-2.1,1.8-3.1.7-1.3-1.3.2-2.5,1-3.4,2.8-3,5.7-5.9,8.4-8.6-10.4-7.8-18.3-.2-27.5,5.9,1-4.8,4.2-6.2,5.7-8.8,1-.6,2.1-1.1,1.9-2.5,0-.2-1.2-.2-1.8-.3-1-.2-1.9-.5-2.9-.7-.7,0-1.4,0-2.1-.1h-2c-5.6-1.2-11.3-1.6-17-1.2h-5c-5.3-.6-10.7-.5-16,0h0ZM482.2,339c.3-.6.6-1.2.9-1.8,7.6-16.7,20.6-27.8,37-35.5,3.6-1.7,5.1-2.1,7.3,2.2,8,16.5,27.8,25.6,45.2,21.4,3.3-.8,6.8-1.8,9.5-5.1-21.9,1.8-39.1-7.7-49.1-20.5,2.1-.7,4.2-1.3,6.1-2,3.2-1.2,6.5-2.8,9.5.6,12.9,10.8,27.8,9,42.8,7,2.2-.3,1.4-1.6,1.1-2.9-1.5-7.9-6.5-12.2-14.1-14.4-8.2-2.4-11.7-7.9-10.9-16.2,4,3.2,8.6,3.4,13.3,3.4,3.8,0,7.6.6,11.4.7,1.4,0,3.8,1.8,4.1-.7.2-1.6-2.4-1.7-3.9-2-7.8-1.6-15-4.5-21.2-9.5-23.1-18.6-45.3-38.2-66.7-58.7-4.6-4.4-7.2-9.5-8.4-15.9-4.2-22.8-24.6-39.5-47.6-40.2-12.2-.3-23.7,2.6-35.2,6-4.8-.2-7.5,1.5-7,6.8.1,1-.3,2-.4,2.9-1.8,11.5-7.6,21.5-11.8,32.1-6.2,15.3-8.5,31-4.4,47.2,5.5,25.2,20.8,41.7,45,50.1,16.2,5.6,33,5.3,49.8,4.7.1,1.7-1.4,2-2.3,2.9-4,4.1-8.2,8-10.7,13.3-1.7,2.2-3.2,4.5-4.5,7-11.2,21.4-11.6,44.1-8,67.2,2.7,17.7,9.7,34.2,13.9,51.6,1.8-2.1,1.5-4.5,1.5-6.8.1-15.8.2-31.6.1-47.5,0-14.5,1.4-28.8,5.7-42.6.7-1.6,1.9-3.1,2-5h0ZM348.5,138.3c1.3-1.6.8-3.3.9-4.8,1-11.1,3.6-21.9,11.5-30.1,4.3-4.4,4.8-7.4.6-11.4-.2-.2-.4-.4-.7-.6-11.3,10.3-17.3,32.6-12.4,46.9h0Z"/>
    <path class="cls-3" d="M13.8,371.2c.8-2,1.9-4.7,3-6.5,1-1.6,1.8-3.3,2.8-4.9.6-1.1,1.3-2.3,1.9-3.5,8.2-15.1,18.5-28.5,32.1-39.1,2.6-2,2.5-3.3.4-5.7-9.7-10.6-17.9-22.2-23.1-35.9-4.6-12-5-24.3-5.5-36.8,0-1.7.8-2.2,2.1-1.7,25.5,9.3,52,17.5,67.9,41.8,5.3,8.1,10.1,10.2,19.4,9.3,24.6-2.3,45.1,6.5,60.2,26.4,7,9.2,10.1,19.8,10.2,31.3,0,3.1,1,5.3,3.2,7.3,11.1,10.4,22.1,20.8,34.7,29.2,6.1,4.1,8.7,9.2,6.9,16.6-1.3,5.4-1.5,10.9.8,16.2,1.6,3.6-.5,5.9-3.1,7.4-2.3,1.3-2.8,2.6-2.8,5.1-.1,6.4-3.8,10.9-9.1,14-10.1,5.8-20.6,5.8-31.3,2-2.7-.9-5.6-1.7-7.7-3.5-7.2-6.1-15.7-6-24.4-5.9-14.8.3-29.7.2-44.5-.1-4.1,0-4.5,1.2-4.2,4.8,1.9,20.5,8.4,39.9,15.3,59,6.5,17.9,12.1,36,11.5,55.4-.3,9.1-2.3,17.8-4.1,26.6-.5,1-1,2-1.4,3.1-1,0-1-.8-1.1-1.3-3.7-21.3-10.9-41.4-20.1-60.9-4.8-10.3-9.3-20.8-13.4-31.4-8.8-22.6-12.8-46-11-70.2.7-9.2,1.9-18.2,5.4-26.8,1.1-2.5,1.8-3.1,3.9-.7,14.6,16.4,33.3,23.4,54.8,24,10.2.2,20.3.2,30.5.1,2.7,0,4.6.6,6.5,2.6,6.4,6.7,13.8,11.5,23.7,10.9,3.8-.3,7.4-1.1,10.9-5-12.6,1-22.3-3.2-31-11.7,3-1.2,5-3.7,8.3-3.8,7.3,4.9,15.4,6.7,24.1,7,2.9,0,3.4-1.1,2.9-3.6-1.1-5-4.2-8.1-9.1-9.5-4.5-1.3-8.3-3.5-9-8.8-.3-2.2-.1-3.1,2.5-2.3,5,1.7,10.1,2.1,15.6,1.2-.4-.5-.6-.9-.8-1-1.7-.6-3.4-1.3-5.2-1.7-16.1-3.9-28.8-13.4-40.6-24.3-4.7-4.4-7.3-9.5-7.4-16.2-.3-14.8-7.2-25.9-19.7-33.8-10.2-6.5-21.4-7.5-33.1-7-4.9.2-6.2,1.9-5,6.2-2.2,20-13.4,35-27.7,48.7-3-5.2-5.9-10.2-9-15.5-8.1,9.1-13.7,19.3-17.2,30.7-5.6,18.3-6.1,37-4.6,55.9,2.2,27.5,12.8,52.4,23.9,77.1,8.4,18.7,17.2,37.1,22.2,57.1,3.1,12.4,5.3,24.9,4.3,38.4-10.8-5.9-20.7-12.2-29.9-19.5-32.6-25.9-53.6-59.4-63.8-99.4-1.2-4.5-2.1-9-2.9-13.6s-1.4-9-1.9-13.6-.7-9-.9-13.5,0-9,.2-13.5c.2-4.5.6-9,1.2-13.5.6-4.5,1.3-9,2.2-13.5s2-9,3.2-13.4c.6-2.2,1.3-4.5,2-6.7.4-1.1.7-2.2,1.1-3.3.3-1,.4-.9.7-1.9l1.4-5.3c.5-1.9,1.1-3.9,1.9-5.7h0ZM86.7,330.5c4.9-27.4-12.9-51.6-34.6-60,14.6,18.1,29.9,36,34.6,60Z"/>
    <path class="cls-3" d="M260.4,574c.2,2.7.5,5.4.7,8.1,0,4.6,0,9.2,0,13.7-.8,3-.8,6.1-.8,9.1,0,.6-.1,1.3-.2,1.9-.2,1-.4,2-.6,3-1.8,6.5-2.7,13.2-5.8,20.2-3.7-11.7-7-22.8-12.6-33-6.1-13-14-24.7-23.4-35.7-15.2-18-32.6-33.4-54.3-42.5-10.6-4.4-17.1-10.4-19.8-21.2-3.7-14.6-10-28.4-14.2-43.2,2.4-1.1,4.6,0,6.8.4,43.4,6.7,77.3,28.6,102.3,64.6,11.1,16,17.7,33.7,21.4,52.7.1.6.2,1.2.3,1.8h0Z"/>
    <path class="cls-2" d="M112.4,338.7c-.3.2-.5.4-.9.6-.3.2-.6.4-.9.7s-.5.4-.6.7c-.2.6,0,1.2.1,1.8,3,13.7,10.5,24,23.2,30.5,18.6,9.4,37,19.2,54.9,30,2.3,1.4,4.9,2.5,4.2,5.9,7.3,4.9,15.4,6.7,24.1,7,2.9,0,3.5-1.1,2.9-3.6-1.1-5-4.2-8.1-9.1-9.5-4.5-1.3-8.3-3.5-9-8.8-.3-2.2-.1-3.1,2.5-2.3,5,1.7,10.1,2.1,15.6,1.2-.5-.5-.6-.9-.8-1-1.7-.6-3.4-1.3-5.2-1.7-16.1-3.9-28.8-13.4-40.6-24.3-4.7-4.4-7.3-9.5-7.4-16.2-.3-14.8-7.2-25.9-19.7-33.8-10.2-6.5-21.4-7.5-33.1-7-4.9.2-6.2,1.9-5,6.2,1.5,0,2.4.9,3,2.2,2.2,4.6,4.7,9.1,6.7,13.9.5,1.2,1.2,2.3,1.4,3.6s-1,2.2-2.3,2.7l-2.7.9c-.4.1-.9.2-1.3.5Z"/>
    <path class="cls-3" d="M112.5,338.8c6.3.9,12.5-.2,18.8-1,12.5-1.4,18,1.9,23,13.4,2.1,4.9,4,9.8,6,14.8.2.6.2,1.2.5,3-5.3-3.4-9.5-6.7-13.2-10.6-2.5-2.7-5.3-4.2-9.2-3.8-3.2.3-6.4-.3-9.1-2.1-6.2-4.1-12.3-8.3-18.5-12.5.2-.9,1.1-.9,1.7-1.1Z"/>
    <path class="cls-2" d="M181.6,286.6c3-5.9,8.4-9.6,12.7-14.5,1-1.1,2-.8,3,0,.5.4,1,.9,1.6,1.2,5.6,2.9,6.1,7,4.9,12.9-1.8,8.7-1.8,17.8-1.8,26.8-4.6-4.8-7.1-11-11.1-16.2-2.9-3.6-5.9-7-9.2-10.3h0Z"/>
    <path class="cls-2" d="M348.5,138.3c-4.9-14.3,1-36.6,12.4-46.9.2.2.5.4.7.6,4.2,4.1,3.7,7-.6,11.4-7.9,8.2-10.5,19-11.5,30.1-.1,1.5.3,3.2-.9,4.8h0Z"/>
    <path class="cls-2" d="M86.7,330.5c-4.7-24.1-20-42-34.6-60,21.7,8.4,39.5,32.7,34.6,60Z"/>
    <path class="cls-2" d="M162.5,192c7.8,13.4,20,22.5,31.7,32.1,11.9,9.8,22.6,20.3,26.7,35.7.5,1.7.8,3.5.9,5.4-9.3-11.5-22.2-18.6-33.4-27.7-12.4-10.1-22-22.2-25.4-38.3-.5-2.4-1.2-4.8-.4-7.3h-.1c0,.1,0,.1,0,.1Z"/>
    <path class="cls-3" d="M393.3,342.8c3.1-9,0-15.2-7.2-20.7-11.4-8.8-21.8-18.5-30.9-29.7-7.2-8.9-11.8-18.8-12.8-30.3-2.4-26.5-16.8-44.6-40.2-56-13-6.3-27.1-7.9-41.4-7.9-2.2,0-4-.3-5.6-2.2-14.8-17.1-33.7-27.4-55.5-32.4-5.4-1.3-10.9-2.4-17.3-1.1,1.2,1,2,1.5,2.7,2.1,14.4,11.6,26,25.7,36,41.2,1.5,2.3,1,3.7-.9,5.4-2.3,2.1-2.9-.3-3.9-1.2-8.6-8.9-18.7-16-29.6-21.9-13.9-7.5-28.2-14.5-39.1-26.4-.1-.1-.6,0-1,.1-.4,1.9-.9,3.9-1.2,5.8-4.9,30.4,4.8,55.8,27.1,76.5,3.4,3.2,2.9,4.9.2,7.8-5.6,6.1-11,12.4-16.7,18.9,9.7,3.9,17.6,9.9,25.6,15.8,3-5.9,8.4-9.6,12.7-14.5,1-1.1,2-.8,3,0,.5.4,1,.9,1.6,1.2,5.6,2.9,6.1,7,4.9,12.9-1.8,8.7-1.8,17.8-1.8,26.8.2.8.4,1.6.5,2.4,3.7,22.3,13.1,41.4,30.8,56,10.2,8.4,21.9,13.8,34.7,16.9,3.3.8,5.4,2.2,6.3,5.9,1,4.5,3,8.7,5,12.9,7.8,16.6,20.4,29.7,31.7,43.8,5.9,7.3,12,14.4,17.6,22,12,16.3,19.9,34.7,25.7,53.9,5.2,17.3,6.6,35.2,4.7,53.3-.2.7-.4,1.3-.6,2v5c-.7,5.7-1.3,11.5-2,17.5,2.5-.4,3.2-2,4.3-3.1,8.5-8.8,13-19.9,16.7-31.3.9-3.7.4-7.8,2.6-11.3.2-.9.3-1.8.5-2.8,1.8-23.1-1.9-45.3-11.5-66.5-9.5-20.8-22.6-39.1-37.6-56.3-9.4-10.8-19.3-21.2-26.6-33.6-3.1-5.2-1.7-8.1,4-8.7,1.2-.1,2.3-.2,3.5-.5,7.4-1.5,14.3-.9,21.4,2.2,8.7,3.8,18.1,5.4,27.8,4.4,14.5-1.5,23.3-9.7,25.3-24,.3-2,1.6-2.3,2.8-3,3.3-2.2,5.9-5,4.2-9.1-2.4-6.1-2.4-12.2-.3-18.1h0ZM161.9,191.3s.2,0,.2,0c.1.2.2.4.3.6-.4,0-.6-.1-.5-.6h0ZM188.4,237.6c-12.4-10.1-22-22.2-25.4-38.3-.5-2.3-1.1-4.7-.4-7.1,7.8,13.3,20,22.4,31.6,32,11.9,9.8,22.6,20.3,26.7,35.7.5,1.7.8,3.5.9,5.4-9.3-11.5-22.2-18.6-33.4-27.7h0ZM368.6,346.9c5.1,1.2,8.7,3.5,10.7,8.6,1.4,3.6,1.3,5.2-3.3,5.4-10.4.3-20.2-1.2-28.8-7.6-.8-.6-1.8-.8-2.7-1.1,0,0,0,0,0,0-.9,0-1.7.2-2,1.2-1.7,1.4-3.7,2.4-5.9,2.8-1.3,2.4,1,2.9,2.1,3.8,12.4,9.5,15.9,12.6,35.7,13.5-3.4,3.5-7.4,4.6-11.8,4.6-10.3.2-19.4-3.3-26.8-10.2-2.7-2.5-5.1-2.8-8.4-2.4-16.4,1.8-32.8,3.7-49.2.5-26.7-5.1-46.6-26.1-49.6-51.8-2.4-11.8-.6-23.2,3.2-34.3,2-5.8,4.5-11.5,6.3-17.3,3.3-10.8,1.2-21-4.2-30.8-1.1-2-2.2-4-3.4-6.2,3-1.3,5.8-2.2,8.8-2.6,23.6-6.5,45.7-4.8,65.3,11.5,9.3,7.7,14,18,15.5,29.8,4.3,32.6,27.9,59.9,59.6,68.8.9.2,2.1,0,2.4,2.1-8.2-2-16.8,1.9-24.6-3.1-.9,8.8,1.8,12.6,11,14.8h0Z"/>
    <path class="cls-3" d="M423.3,178.3c10.2.3,19.2-1.1,28.2-2.1,17.8-1.9,25.6,2.2,33.8,18.2,4.5,8.8,7.2,18.4,10.4,27.7-2.2,1-2.9-.5-3.8-1.4-6.7-6.5-13.4-13-19.9-19.6-1.8-1.8-3.4-2.9-6-2.7-8.5.6-16-1.9-22.3-8-3.2-3.1-7.6-4.7-11.7-6.5-2.9-1.2-5.7-2.6-8.8-5.7h0Z"/>
    <path class="cls-3" d="M250.4,260c2.5-1.8,5.4-.5,8-1.1,6,.7,11.9-.6,17.9-1.4,10.7-1.4,18.9,2.3,24.6,11.5,5.9,9.5,8.2,20.2,11.5,31.2-2.8-.4-4-2.4-5.4-3.7-2.9-2.7-6-5.4-8.5-8.5-4.7-6-9.5-11.2-18.2-9.9-3,.5-6-1-8.2-3.2-6.3-6.1-14.1-9.8-21.7-13.9h0c0-.3,0-.7-.1-1h0Z"/>
  </g>
  <path class="cls-1" d="M389.6,203.3c-1.5-3.9-.9-8.4.7-12.3s4.2-7.3,6.5-10.8,4.6-7.2,5.5-11.3"/>
  <path class="cls-1" d="M406.3,159.8l-6.3,20.1"/>
  <path class="cls-1" d="M391.7,199.7c.6-5.9,2.2-11.6,4.7-17"/>
</svg>