<?xml version="1.0" encoding="UTF-8"?>
<svg id="Layer_2" data-name="Layer 2" xmlns="http://www.w3.org/2000/svg" viewBox="0 0 608.29 630.15">
  <defs>
    <style>
      .cls-1 {
        fill: #f0f0e7;
      }

      .cls-1, .cls-2 {
        stroke-width: 0px;
      }

      .cls-2 {
        fill: #162626;
      }
    </style>
  </defs>
  <g id="Layer_1-2" data-name="Layer 1">
    <path class="cls-1" d="M238.19,262.39c3.29-10.82,1.19-21.04-4.22-30.75-1.12-2.02-2.25-4.04-3.43-6.16,3.01-1.3,5.84-2.2,8.83-2.58,7.84,5.59,14.06,12.54,17.74,21.52,1.89,4.61,3.37,9.37,1.34,14.4-2.64.66-5.57-.67-8.05,1.14-.47-.38-1.2-.93-1.42-.07-.27,1.04.8,1.02,1.53,1.11l-.02-.02c1.74,20.61,11.68,36.24,29.6,46.23,20.72,11.56,41.83,22.43,62.81,33.53,6.61,3.5,6.76,3.91,2,9.94-.29.36-.3.93-.44,1.41l.03-.02c-2.49,1.9-3.27,3.88.84,5.6,10.41,4.34,21.45,7.17,32.67,8.35.65.07,1.36.16,1.8.64.47.5.48,1.27.38,1.95-.54,3.64-3.37,6.44-6.05,8.95-1.86,1.74-3.77,3.53-6.14,4.48-1.78.72-3.72.92-5.64,1.04-8.21.52-16.51-.39-24.41-2.69-4.89-1.42-9.69-3.25-14.72-4.16-4.1-.75-8.05-.1-12.22-.18,0,0-36.13-.72-36.13-.72-4.03-1.6-8.31-2.53-12.65-2.53l-27.1-24.93c-1.3-1.92-2.4-3.98-3.25-6.14l-5.42-6.5c-1.78-1.22-3.48-2.59-5.27-3.8-.46-.31-.93-.64-1.23-1.11-.32-.5-.41-1.11-.56-1.68-.53-2.15-2.33-3.6-2.44-5.61-.14-2.44,2.49-6.74,3.35-9.08,2.13-5.79,4.27-11.58,6.36-17.39,4.08-11.31,8.01-22.68,11.51-34.18Z"/>
    <path class="cls-1" d="M548.56,295.2c-1.38,4.27.39,5.58,3.96,7.03,2.37.96,3.54,3.65,5.66,5.07,1.57,1.05,3.51,1.31,5.36,1.69,5.57,1.16,10.83,3.74,15.2,7.39.84.71,2.69,1.9,3.08,2.95.5,1.33-.93,2.31-1.91,3.06-2.13,1.61-4.7,2.34-7.25,2.96-9.31,2.26-19.31.68-27.76-3.73-4.3-2.25-8.22-5.23-11.48-8.82-1.64-1.81-3.11-3.77-4.38-5.85-.55-.91-.83-2.01-1.95-2.18-.99-.15-2.88.98-3.79,1.34-4.27,1.71-8.59,3.98-11.18,7.93-1.56,2.38-2.35,5.16-3.41,7.79-2.52,6.22-6.62,11.65-10.67,17-2.43,3.21-8.12,7.86-7.45,12.31l-10.84,96.11c-1.08,1.81-2.18,3.61-3.25,5.42l-16.26,4.34c-3.13-.39-6.24-1.08-9.39-1.08-.25-9.82-.51-19.65-.76-29.47-.39-15.33-.79-30.67-1.18-46-.3-11.84,1.19-25.35-5.43-35.83-2.38-3.76-1.84-8.05-1.5-12.34.28-3.47.31-6.97.08-10.45-.12-1.84-.34-3.77-1.36-5.31-.91-1.39-2.37-2.32-3.81-3.17-9.13-5.38-19.27-9.04-29.73-10.74-3.68-.6-7.57-1.02-10.61-3.18-5.29-3.76-6.06-11.14-7.01-17.56-1.99-13.41-6.83-26.35-7.86-39.87-.28-3.75-.26-7.52.06-11.27.97-11.41,4.62-23.6,11.3-33.02,3.24-4.58,5.24-10.33,7.45-15.53,2.39-5.62,4.5-11.41,5.44-17.47.15-.98.53-1.99.43-2.95-.55-5.29,2.22-7.07,7.01-6.83.09,4.81.19,9.58,1.01,14.37,1.36,7.99,2.17,16.1,5.07,23.73,4.1,10.78,13.03,16.84,22.46,22.21,17.73,10.1,34.82,21.23,52.21,31.89,9.65,5.91,19.21,11.97,28.79,17.98,4.84,3.03,9.69,6.06,14.57,9.04,2.44,1.49,4.88,2.98,7.33,4.45,2.05,1.23,4.62,2.22,5.43,4.66.06.18.11.36.15.54.26,1.12.23,2.28.19,3.43-.03.96-.06,1.92-.24,2.86-.35,1.77-1.23,3.39-1.79,5.1Z"/>
    <path class="cls-2" d="M243.44,21.09c-3,.04-6,.08-8.99.12-23.64.83-46.47,6.02-68.93,13.05-2.37.74-4.7,1.62-7.02,2.52-1.16.45-2.32.91-3.48,1.36-.93.36-1.9.68-2.79,1.11-.97.47-1.96.92-2.94,1.38l-2.91,1.37c-.42.2-1.05.15-1.51.09-.6-.09-1.16-.34-1.65-.7,5.92-4.87,12.25-8.87,18.81-12.5C219.96-3.18,280.28-8.55,342.98,12.78c.78.27,1.61.38,2.42.57.83.53,1.59,1.23,2.49,1.56,18.05,6.71,34.46,16.23,49.71,27.98,29.39,22.64,52.66,50.21,68.46,83.87.96,2.04,2.46,2.49,4.12,3.12,25.64,9.79,42.34,27.49,48.44,54.61.4,1.78.86,3.45,2.29,4.85,16.41,16.07,33.24,31.69,50.38,46.98,4.35,4.07,8.7,8.15,13.05,12.22.05.34.24.52.58.54,1.12,1.06,2.24,2.13,3.37,3.19.96.96,1.92,1.92,2.88,2.88,3.75,4.87,8.89,8.32,13.1,12.76,3.68,3.89,4.73,7.78,3.6,12.63-.83,3.57-1.75,7.11-2.72,10.64-1.24,4.5-.76,8.86.63,13.25,2.12,6.75.02,10.79-6.66,13.25-1.41.52-3.28.11-3.3,2.75-.1,10.83-6.44,17.36-15.52,21.91-1.02.51-1.95,1.19-2.92,1.8-3.56.69-7.1,1.62-10.69,2.02-13.81,1.53-26.42-2.03-37.78-9.79-3.53-2.41-6.37-2.31-9.98-.39-10.2,5.45-16.51,14.12-19.35,24.86-2.68,10.13-5.35,20.27-5.03,31.14.42,14.25-.3,28.55-2.9,42.71-2.05,11.16-2.68,22.62-6.84,33.3-7.21,18.5-15.73,36.31-28.42,51.83-3.57,4.36-7.12,8.73-10.67,13.1-.34.35-.67.7-1.01,1.05-1.28,1.3-2.57,2.59-3.85,3.89-7.71,6.94-15.68,13.54-24.44,19.16-.7-.17-1.43,1.22-2.11-.04,6.35-15.95,12.82-31.84,15.24-49.03,3.25-23.06,1.65-45.77-3.62-68.41-4.93-21.2-10.04-42.42-9.65-64.46.32-18.56,3.35-36.44,12.26-52.97,1.29-2.4,1.05-3.26-1.72-4.06-34.99-10.09-55.4-34.16-62.85-68.86-7.67-35.72-29.56-57.36-62.98-69.02-.94-.33-1.89-.64-2.82-1-.28-.11-.49-.38-1.09-.86,11.49-10.45,23.06-20.66,36.71-28.12,2.44-1.34,3.09-2.41,1.93-4.9-.76-1.63-1.42-3.51-1.41-5.27.05-10.26-7.29-14.79-14.62-19.44-49.69-31.56-100.91-30.49-152.94-6.79-1.44.66-2.88,1.34-4.31,2.03s-2.85,1.41-4.26,2.15-2.81,1.48-4.2,2.25-2.76,1.55-4.13,2.34-2.72,1.61-4.07,2.44-2.68,1.67-4.01,2.53-2.65,1.73-3.95,2.62-2.61,1.79-3.9,2.7-2.57,1.84-3.84,2.78-2.54,1.89-3.79,2.86-2.5,1.94-3.74,2.93-2.47,1.99-3.69,3-2.44,2.03-3.65,3.07-2.41,2.08-3.6,3.13-2.38,2.12-3.56,3.19c-.65.59-1.3,1.19-1.95,1.79l-1.69,1.57-2,1.86-1.29,1.19c-1.31,1.22-2.63,2.42-3.95,3.63l-4,3.67-3.66,3.36c7.73-13.85,16.16-26.99,26.9-38.62,17.87-19.34,37.36-36.54,60.87-48.75,41.19-21.39,84.67-29.45,130.57-21.14,13.19,2.39,26.23,6.05,38.35,12.25,2.35,1.2,3.31,2.09,1.7,4.72-1.4,2.27-2.14,4.95-2.65,7.8,3.84-5.36,8.01-10.34,12.48-15.09,2.47-2.62,3.85-3.26,6.83-.25,16.95,17.14,30.99,36.09,38.37,59.36.91,2.86,2.06,2.93,4.63,2.06,10.51-3.55,21.09-6.95,32.99-7.66-2.53-3.63-4.87-6.78-6.98-10.08-1.37-2.14-3.08-1.55-4.82-.99-6.81,2.19-13.61,4.39-20.39,6.67-1.98.66-3.58,2.2-5.04-1.17-1.5-3.48.63-3.98,2.75-4.91,6.55-2.88,13.3-5.24,20.82-7.5-2.98-3.61-5.79-7-8.6-10.38-1.08-1.3-2.33-.76-3.65-.41-5.49,1.44-10.91,3.19-15.87,5.9-3.26,1.78-4.54.58-6-2.15-1.91-3.56,1.18-3.44,2.87-4.15,5.05-2.13,10.16-4.08,15.91-6.36-2.66-2.78-5.23-5.44-7.75-8.14-1.13-1.2-2.28-.93-3.62-.41-4.34,1.67-8.8,3.08-13.06,4.93-2.64,1.15-3.93.38-5.1-1.97-1.6-3.21,1.5-2.74,2.69-3.38,3.65-1.96,7.47-3.62,11.72-5.63-2.52-2.18-5.05-4.23-7.4-6.47-1.35-1.29-2.63-1.09-4.1-.48-2.46,1.01-5.15,1.65-7.37,3.05-4.48,2.83-7.34,1.57-9.43-2.98,3.67-2.65,7.83-4.28,12.09-5.73-4.3-6.15-7.8-7.28-14.11-4.64-4.92,2.06-9.81,4.29-13.91,7.71-2.86,2.38-3.78-.2-5.12-1.47-2.11-2,.59-2.45,1.43-3.12,4.83-3.84,10.19-6.86,15.86-9.38-6.87-6.41-8.52-6.72-16.28-2.43-3.63,2.01-7.12,4.3-10.61,6.54-1.72,1.1-3.38,1.63-4.81-.18-1.79-2.26.91-2.72,1.84-3.56,2.09-1.88,4.45-3.49,6.79-5.07,2.19-1.48,4.5-2.78,6.79-4.18-8.12-6.3-8.14-6.35-16.8-1.53-3.34,1.86-6.53,3.99-9.79,5.98-1.16.71-2.62,1.54-3.66.47-1.35-1.4.48-2.29,1.2-3.21,3.12-3.98,7.53-6.44,12.23-10.03-6.63-2.33-12.3-5.9-18.68-.49-2.64,2.24-5.74,3.97-8.7,5.83-.9.57-2.06,1.8-3.08.73-1.28-1.34.24-2.52,1.01-3.38,2.77-3.05,5.72-5.94,8.35-8.63-10.36-7.83-18.29-.21-27.47,5.89.96-4.84,4.25-6.17,5.69-8.76.97-.57,2.07-1.1,1.85-2.45-.03-.2-1.16-.21-1.78-.31-.95-.22-1.91-.45-2.86-.67-.72-.04-1.44-.08-2.15-.12l-1.99-.14c-5.62-1.02-11.28-1.48-16.99-1.06l-5-.05c-5.33-.53-10.66-.41-16,.02ZM482.18,339.03c.31-.59.63-1.19.94-1.78,7.64-16.74,20.63-27.8,37.04-35.46,3.6-1.68,5.14-2.14,7.26,2.18,8.05,16.48,27.83,25.61,45.24,21.38,3.34-.81,6.81-1.75,9.45-5.13-21.88,1.8-39.08-7.72-49.1-20.48,2.12-.68,4.15-1.27,6.14-1.98,3.25-1.17,6.49-2.76,9.46.56,12.89,10.78,27.84,8.97,42.82,7.03,2.19-.28,1.39-1.57,1.14-2.9-1.5-7.94-6.52-12.18-14.06-14.4-8.18-2.41-11.69-7.86-10.93-16.24,4,3.16,8.56,3.39,13.28,3.37,3.81-.01,7.63.59,11.44.67,1.4.03,3.76,1.83,4.09-.67.21-1.57-2.43-1.68-3.9-1.98-7.8-1.57-15.04-4.54-21.21-9.5-23.08-18.59-45.32-38.16-66.72-58.68-4.58-4.4-7.2-9.49-8.39-15.9-4.22-22.75-24.62-39.51-47.62-40.16-12.19-.34-23.71,2.56-35.2,5.98-4.79-.24-7.55,1.54-7.01,6.83.1.96-.27,1.96-.43,2.95-1.8,11.5-7.56,21.53-11.84,32.12-6.17,15.27-8.46,30.98-4.42,47.25,5.52,25.21,20.82,41.7,44.99,50.1,16.19,5.63,33,5.33,49.82,4.67.13,1.66-1.43,2.01-2.28,2.9-3.97,4.12-8.25,7.98-10.7,13.31-1.7,2.23-3.21,4.54-4.52,7.05-11.18,21.42-11.57,44.15-8,67.25,2.73,17.67,9.68,34.25,13.9,51.63,1.83-2.11,1.46-4.54,1.47-6.82.1-15.82.18-31.65.15-47.47-.03-14.49,1.38-28.76,5.72-42.65.74-1.64,1.92-3.11,1.96-5.02ZM348.5,138.27c1.28-1.62.8-3.29.94-4.8,1.02-11.12,3.64-21.92,11.49-30.09,4.27-4.44,4.76-7.39.58-11.44-.21-.2-.44-.39-.66-.58-11.29,10.28-17.28,32.57-12.35,46.91Z"/>
    <path class="cls-2" d="M13.83,371.17c.81-1.96,1.94-4.7,3.02-6.51.96-1.62,1.84-3.29,2.76-4.93.64-1.15,1.28-2.3,1.91-3.46,8.19-15.1,18.51-28.46,32.08-39.11,2.61-2.05,2.52-3.33.36-5.69-9.73-10.61-17.86-22.21-23.06-35.86-4.56-11.95-5-24.32-5.49-36.78-.07-1.69.76-2.19,2.09-1.7,25.53,9.26,52.03,17.5,67.88,41.79,5.28,8.09,10.05,10.16,19.37,9.27,24.58-2.34,45.07,6.49,60.25,26.36,7.02,9.18,10.09,19.83,10.18,31.28.02,3.15,1.04,5.27,3.23,7.33,11.05,10.38,22.09,20.79,34.74,29.24,6.14,4.11,8.68,9.19,6.9,16.56-1.3,5.39-1.48,10.92.8,16.2,1.57,3.63-.49,5.93-3.15,7.42-2.27,1.27-2.75,2.65-2.8,5.1-.13,6.42-3.81,10.88-9.14,13.96-10.07,5.83-20.62,5.79-31.33,2.01-2.66-.94-5.62-1.73-7.69-3.49-7.25-6.15-15.68-6.02-24.42-5.85-14.82.29-29.66.2-44.48-.11-4.09-.08-4.48,1.21-4.15,4.79,1.86,20.55,8.4,39.85,15.35,59.05,6.49,17.92,12.11,35.96,11.52,55.39-.27,9.07-2.34,17.78-4.14,26.57-.48,1.02-.97,2.05-1.45,3.07-.97.03-.98-.76-1.08-1.31-3.73-21.27-10.88-41.38-20.08-60.87-4.85-10.27-9.31-20.76-13.42-31.35-8.76-22.57-12.77-45.97-11.04-70.23.65-9.16,1.87-18.18,5.43-26.75,1.05-2.53,1.75-3.11,3.89-.69,14.55,16.42,33.32,23.44,54.83,23.96,10.16.24,20.32.22,30.48.14,2.66-.02,4.64.62,6.51,2.59,6.42,6.74,13.81,11.52,23.67,10.85,3.84-.26,7.38-1.12,10.92-4.95-12.58.97-22.34-3.2-30.96-11.72,2.97-1.23,5-3.73,8.32-3.84,7.28,4.89,15.41,6.69,24.05,6.96,2.92.09,3.45-1.12,2.89-3.58-1.15-5.01-4.18-8.1-9.14-9.53-4.5-1.3-8.28-3.47-8.97-8.83-.29-2.23-.14-3.14,2.47-2.27,5,1.66,10.14,2.12,15.61,1.23-.45-.55-.59-.89-.82-.97-1.72-.61-3.43-1.3-5.2-1.72-16.09-3.87-28.76-13.41-40.61-24.34-4.73-4.36-7.29-9.5-7.43-16.19-.32-14.77-7.23-25.86-19.73-33.77-10.25-6.48-21.37-7.52-33.09-7.03-4.88.2-6.17,1.85-4.97,6.21-2.23,20.05-13.39,35-27.71,48.7-3.04-5.22-5.93-10.19-9.01-15.48-8.14,9.11-13.68,19.31-17.18,30.74-5.6,18.31-6.13,37-4.63,55.89,2.18,27.51,12.75,52.4,23.9,77.12,8.41,18.65,17.21,37.14,22.21,57.12,3.1,12.39,5.26,24.86,4.34,38.42-10.77-5.88-20.65-12.15-29.87-19.48-32.56-25.88-53.59-59.39-63.82-99.38-1.15-4.49-2.13-9.01-2.94-13.57s-1.44-9.02-1.9-13.56-.74-9.02-.86-13.54-.06-9.02.17-13.52.62-9.01,1.19-13.48,1.3-8.99,2.19-13.45,1.97-8.97,3.18-13.4c.62-2.24,1.27-4.47,1.96-6.68.35-1.11.71-2.23,1.07-3.34.32-.98.45-.94.72-1.93l1.43-5.33c.52-1.94,1.09-3.87,1.86-5.74ZM86.65,330.45c4.89-27.37-12.88-51.65-34.59-60.04,14.6,18.09,29.87,35.97,34.59,60.04Z"/>
    <path class="cls-2" d="M260.35,574c.24,2.71.49,5.42.73,8.13.02,4.58.04,9.16.06,13.74-.8,3-.8,6.07-.76,9.14-.07.64-.13,1.29-.2,1.93-.2,1.02-.39,2.03-.59,3.05-1.84,6.48-2.72,13.25-5.82,20.17-3.73-11.66-6.97-22.8-12.58-33.01-6.13-12.98-14.03-24.68-23.35-35.7-15.23-18.02-32.56-33.41-54.27-42.46-10.65-4.44-17.08-10.44-19.82-21.24-3.7-14.62-10.03-28.4-14.24-43.18,2.4-1.06,4.61.04,6.76.38,43.44,6.72,77.27,28.58,102.33,64.56,11.14,16,17.74,33.71,21.41,52.68.11.61.22,1.22.32,1.83Z"/>
    <path class="cls-1" d="M107.53,315.04c-1.2-4.36.08-6.01,4.97-6.21,11.71-.49,22.84.55,33.09,7.03,12.51,7.91,19.42,19,19.73,33.77.14,6.7,2.7,11.84,7.43,16.19,11.85,10.92,24.52,20.47,40.61,24.34,1.77.43,3.48,1.11,5.2,1.72.23.08.37.42.82.97-5.47.9-10.61.43-15.61-1.23-2.62-.87-2.76.04-2.47,2.27.69,5.36,4.47,7.53,8.97,8.83,4.96,1.43,7.99,4.52,9.14,9.53.57,2.46.03,3.67-2.89,3.58-8.64-.27-16.78-2.07-24.05-6.96.63-3.43-1.96-4.58-4.22-5.94-17.88-10.77-36.31-20.53-54.92-29.95-12.71-6.44-20.16-16.72-23.2-30.47-.23-1.05-.5-1.92.6-2.58,6.17,4.18,12.31,8.39,18.51,12.52,2.73,1.82,5.92,2.42,9.08,2.12,3.88-.36,6.64,1.15,9.19,3.84,3.7,3.91,7.93,7.19,13.19,10.63-.26-1.71-.24-2.38-.47-2.95-1.96-4.94-3.87-9.9-5.97-14.77-4.98-11.59-10.53-14.87-23-13.44-6.25.72-12.46,1.85-18.79.95-2.07-1.94-.42-1.71.99-1.79,5.95-.33,6.14-.43,3.82-5.95-1.99-4.73-4.48-9.24-6.73-13.86-.63-1.29-1.52-2.15-3.03-2.2Z"/>
    <path class="cls-2" d="M112.48,338.84c6.32.9,12.53-.23,18.79-.95,12.47-1.43,18.01,1.85,23,13.44,2.1,4.88,4.01,9.84,5.97,14.77.23.57.21,1.25.47,2.95-5.26-3.44-9.48-6.72-13.19-10.63-2.54-2.68-5.31-4.2-9.19-3.84-3.16.29-6.35-.3-9.08-2.12-6.2-4.13-12.34-8.34-18.51-12.52.25-.88,1.09-.86,1.74-1.1Z"/>
    <path class="cls-1" d="M181.64,286.6c2.99-5.91,8.45-9.65,12.7-14.46,1.02-1.15,1.99-.81,2.98.06.5.44,1,.91,1.58,1.21,5.57,2.85,6.08,6.96,4.86,12.9-1.8,8.74-1.76,17.81-1.84,26.77-4.55-4.8-7.05-11.01-11.1-16.18-2.85-3.65-5.91-7.05-9.18-10.3Z"/>
    <path class="cls-1" d="M348.5,138.27c-4.93-14.34,1.05-36.63,12.35-46.91.22.19.45.37.66.58,4.18,4.06,3.68,7-.58,11.44-7.85,8.17-10.46,18.98-11.49,30.09-.14,1.5.33,3.18-.94,4.8Z"/>
    <path class="cls-1" d="M86.65,330.45c-4.71-24.07-19.99-41.95-34.59-60.04,21.7,8.39,39.47,32.67,34.59,60.04Z"/>
    <path class="cls-1" d="M162.53,192.04c7.81,13.4,20.03,22.5,31.66,32.09,11.86,9.78,22.56,20.28,26.72,35.74.46,1.71.81,3.46.91,5.4-9.34-11.48-22.18-18.58-33.37-27.67-12.45-10.12-21.98-22.23-25.42-38.33-.52-2.41-1.19-4.84-.38-7.34l-.11.11Z"/>
    <path class="cls-2" d="M393.3,342.78c3.08-9.04-.09-15.21-7.23-20.71-11.37-8.75-21.83-18.53-30.91-29.72-7.21-8.9-11.78-18.75-12.84-30.31-2.43-26.48-16.78-44.58-40.25-55.97-13.05-6.33-27.07-7.92-41.35-7.85-2.25.01-3.95-.3-5.62-2.24-14.76-17.14-33.66-27.38-55.48-32.45-5.4-1.26-10.95-2.36-17.28-1.1,1.23.96,1.97,1.52,2.69,2.09,14.44,11.6,26.01,25.7,36,41.2,1.5,2.33.97,3.67-.93,5.4-2.29,2.09-2.94-.26-3.85-1.2-8.65-8.95-18.68-15.97-29.59-21.88-13.88-7.52-28.16-14.5-39.1-26.39-.11-.12-.56.06-1.02.12-.39,1.91-.86,3.85-1.17,5.81-4.94,30.45,4.84,55.79,27.13,76.51,3.42,3.18,2.86,4.95.21,7.83-5.6,6.09-10.98,12.38-16.7,18.87,9.67,3.92,17.63,9.91,25.64,15.81,2.99-5.91,8.45-9.65,12.7-14.46,1.02-1.15,1.99-.81,2.98.06.5.44,1,.91,1.58,1.21,5.57,2.85,6.08,6.96,4.86,12.9-1.8,8.74-1.76,17.81-1.84,26.77.16.81.35,1.62.48,2.44,3.68,22.28,13.06,41.41,30.8,55.97,10.23,8.4,21.91,13.78,34.67,16.92,3.32.82,5.41,2.16,6.27,5.87,1.04,4.45,3,8.67,4.98,12.86,7.84,16.59,20.43,29.7,31.71,43.77,5.87,7.32,12.05,14.41,17.6,21.96,11.97,16.3,19.9,34.7,25.71,53.89,5.24,17.31,6.57,35.22,4.67,53.28-.19.65-.37,1.31-.56,1.96,0,1.66,0,3.32,0,4.98-.67,5.73-1.34,11.47-2.04,17.45,2.45-.38,3.25-1.96,4.34-3.09,8.55-8.84,13.05-19.86,16.68-31.33.94-3.74.39-7.83,2.64-11.26.16-.92.33-1.83.49-2.75,1.79-23.13-1.85-45.32-11.54-66.46-9.52-20.77-22.61-39.15-37.61-56.26-9.44-10.76-19.3-21.2-26.63-33.63q-4.63-7.85,4.05-8.72c1.16-.12,2.32-.25,3.46-.48,7.35-1.47,14.26-.91,21.36,2.18,8.74,3.8,18.13,5.39,27.82,4.39,14.46-1.49,23.32-9.72,25.31-24.03.28-1.99,1.64-2.26,2.82-3.04,3.29-2.17,5.86-5,4.22-9.09-2.44-6.09-2.35-12.19-.34-18.09ZM161.94,191.29s.2-.04.21,0c.12.21.21.43.32.65-.39.02-.62-.14-.53-.65ZM188.45,237.6c-12.45-10.12-21.98-22.23-25.42-38.33-.5-2.34-1.13-4.7-.44-7.11,7.82,13.33,20,22.41,31.6,31.98,11.86,9.78,22.56,20.28,26.72,35.74.46,1.71.81,3.46.91,5.4-9.34-11.48-22.18-18.58-33.37-27.67ZM368.61,346.87c5.1,1.21,8.73,3.5,10.67,8.57,1.39,3.65,1.26,5.21-3.31,5.36-10.44.34-20.22-1.19-28.84-7.57-.75-.56-1.76-.76-2.66-1.13,0-.01.01-.02.02-.03-.87.05-1.66.25-2,1.2-1.74,1.4-3.67,2.41-5.88,2.82-1.29,2.35,1.04,2.94,2.11,3.76,12.43,9.51,15.87,12.62,35.68,13.5-3.4,3.49-7.42,4.57-11.75,4.64-10.28.19-19.36-3.32-26.81-10.23-2.71-2.51-5.09-2.75-8.35-2.41-16.38,1.75-32.81,3.66-49.2.53-26.67-5.08-46.59-26.08-49.57-51.83-2.41-11.77-.62-23.16,3.18-34.33,1.98-5.82,4.5-11.47,6.28-17.34,3.29-10.82,1.19-21.04-4.22-30.75-1.12-2.02-2.25-4.04-3.43-6.16,3.01-1.3,5.84-2.2,8.83-2.58,23.57-6.48,45.75-4.83,65.29,11.47,9.28,7.74,14,18.04,15.55,29.82,4.3,32.61,27.88,59.92,59.61,68.84.88.25,2.1-.03,2.39,2.11-8.25-1.99-16.84,1.87-24.64-3.06-.86,8.78,1.8,12.59,11.04,14.78Z"/>
    <path class="cls-2" d="M423.3,178.29c10.2.26,19.2-1.14,28.25-2.13,17.83-1.94,25.56,2.23,33.79,18.17,4.55,8.81,7.24,18.37,10.39,27.72-2.22.96-2.9-.54-3.75-1.37-6.68-6.49-13.36-12.97-19.89-19.6-1.75-1.78-3.38-2.87-6-2.69-8.54.57-15.97-1.88-22.26-7.96-3.24-3.13-7.58-4.73-11.72-6.46-2.9-1.21-5.71-2.59-8.81-5.67Z"/>
    <path class="cls-2" d="M250.4,259.97c2.48-1.81,5.41-.47,8.05-1.14,6.04.68,11.94-.61,17.85-1.41,10.73-1.44,18.89,2.34,24.58,11.48,5.88,9.45,8.22,20.19,11.52,31.16-2.81-.43-3.96-2.36-5.4-3.71-2.91-2.73-6.01-5.35-8.46-8.46-4.71-5.99-9.45-11.25-18.22-9.86-2.99.48-5.98-1.04-8.17-3.17-6.29-6.13-14.07-9.84-21.67-13.87,0,0,.02.02.02.02-.04-.35-.07-.7-.11-1.05Z"/>
  </g>
</svg>